<svg width="568" height="559" fill="none" xmlns="http://www.w3.org/2000/svg"><path d="M528.978 504.05H38.551v27.246c0 15.053 12.193 27.246 27.246 27.246h435.935c15.054 0 27.246-12.193 27.246-27.246V504.05z" fill="url(#a)"/><path d="M528.978 504.05H38.551V245.213l245.214-231.59 245.213 231.59V504.05z" fill="url(#b)"/><path d="M133.912 313.328h136.23c7.52 0 13.623 6.103 13.623 13.623v231.591H120.289V326.951c0-7.52 6.103-13.623 13.623-13.623z" fill="#DE490D"/><path opacity=".05" d="M283.765 27.246a27.18 27.18 0 0 0-18.064 6.852l-73.006 65.54L38.551 245.213v73.428l245.214-217.45 245.213 217.45v-73.428L374.834 99.638l-73.005-65.54a27.183 27.183 0 0 0-18.064-6.852z" fill="#000"/><path opacity=".07" d="M283.765 13.623a27.275 27.275 0 0 0-18.064 6.811l-73.006 65.173L38.551 230.35v73.005l245.214-216.21 245.213 216.21V230.35L374.834 85.607l-73.005-65.173a27.277 27.277 0 0 0-18.064-6.811z" fill="#000"/><path d="M562.967 238.497 301.829 6.852A27.183 27.183 0 0 0 283.765 0a27.179 27.179 0 0 0-18.064 6.852L4.562 238.497c-5.722 5.095-6.117 13.896-.872 19.481l22.287 23.772c5.027 5.368 13.405 5.776 18.936.913L283.765 73.945l238.851 208.732c5.518 4.849 13.909 4.454 18.936-.913l22.287-23.772c5.245-5.599 4.85-14.4-.872-19.495z" fill="url(#c)"/><path d="M351.88 313.328h81.737c7.52 0 13.623 6.103 13.623 13.623v81.738c0 7.52-6.103 13.623-13.623 13.623H351.88c-7.52 0-13.623-6.103-13.623-13.623v-81.738c0-7.52 6.103-13.623 13.623-13.623z" fill="url(#d)"/><defs><linearGradient id="a" x1="38.551" y1="531.296" x2="528.978" y2="531.296" gradientUnits="userSpaceOnUse"><stop stop-color="#C8D3DE"/><stop offset="1" stop-color="#C8D3DE"/></linearGradient><linearGradient id="b" x1="148.829" y1="113.588" x2="384.37" y2="569.263" gradientUnits="userSpaceOnUse"><stop stop-color="#FCFCFC"/><stop offset=".495" stop-color="#F4F4F4"/><stop offset=".946" stop-color="#E8E8E8"/><stop offset="1" stop-color="#E8E8E8"/></linearGradient><linearGradient id="c" x1="283.765" y1="-4.305" x2="283.765" y2="295.564" gradientUnits="userSpaceOnUse"><stop stop-color="#D43A02"/><stop offset="1" stop-color="#B9360C"/></linearGradient><linearGradient id="d" x1="338.938" y1="314.009" x2="441.982" y2="417.053" gradientUnits="userSpaceOnUse"><stop stop-color="#33BEF0"/><stop offset="1" stop-color="#0A85D9"/></linearGradient></defs></svg>